<svg width="123" height="28" viewBox="0 0 123 28" fill="none" xmlns="http://www.w3.org/2000/svg">
<path fill-rule="evenodd" clip-rule="evenodd" d="M7.25156 16.8854C5.16514 16.8854 3.8675 15.6523 3.8675 13.8656V13.8908H0C0 17.7158 2.7734 20.4084 7.25156 20.4084C11.7297 20.4084 14.6558 17.5397 14.6558 14.6709C14.6558 10.3587 11.0044 9.24475 8.01679 8.33335C5.94843 7.70238 4.19827 7.16847 4.19827 5.7375C4.19827 4.6051 5.31781 3.49786 7.25156 3.49786C9.18531 3.49786 10.3048 4.57994 10.3048 6.36662H14.0197C14.0197 2.6926 11.2717 0 7.25156 0C2.90062 0 0.178109 2.71777 0.178109 5.76267C0.178109 9.80707 3.69858 10.8695 6.65429 11.7615C8.79277 12.4069 10.6356 12.963 10.6356 14.4948C10.6356 15.7781 9.54152 16.8854 7.25156 16.8854ZM19.8466 5.58652H17.1241V25.2903H20.8135V18.9237C21.1218 19.2065 21.4635 19.4516 21.8312 19.6535C22.6966 20.1224 23.6688 20.3649 24.6555 20.3581C28.3704 20.3581 31.5763 17.2125 31.5763 12.8842C31.5763 8.55593 28.3449 5.41037 24.6555 5.41037C23.5869 5.43091 22.5393 5.70722 21.6022 6.21563C21.2045 6.44905 20.8297 6.71864 20.4827 7.0209L19.8466 5.58652ZM24.1975 8.9334C26.2839 8.9334 27.8869 10.4936 27.8869 12.9094C27.8869 15.3252 26.2839 16.8854 24.1975 16.8854C22.1111 16.8854 20.5081 15.3252 20.5081 12.9094C20.5081 10.4936 22.1111 8.9334 24.1975 8.9334ZM47.5371 15.7781C46.7738 17.9674 44.2803 20.3832 40.9471 20.3832C36.9524 20.3832 33.5429 17.0363 33.5429 12.9093C33.5429 8.78233 36.9524 5.43545 40.9471 5.43545C44.8146 5.43545 48.0205 8.45519 48.0205 12.9093C48.0032 13.2296 47.9693 13.5487 47.9188 13.8656L47.8424 14.3437H37.563C37.9192 15.7781 39.0133 16.8853 40.9471 16.8853C41.679 16.9071 42.4023 16.7239 43.0335 16.3568C43.2854 16.2118 43.5025 16.0143 43.6696 15.7781H47.5371ZM44.4838 11.8021C44.1276 10.1664 42.8808 8.93331 40.9471 8.93331C39.0133 8.93331 37.7666 10.1664 37.4104 11.8021H44.4838ZM49.9828 5.41935L54.639 12.5912L49.6774 20.0676H53.6976L56.9112 15.1329L60.1095 20.0651H64.1297L59.1426 12.5912L63.8243 5.41935H59.8042L56.9036 10.0245L54.0029 5.41935H49.9828ZM78.2148 14.4469L74.6018 13.8178L74.3219 15.3529C74.0674 16.4601 72.9479 17.1395 71.6248 16.8879C70.3017 16.6362 69.4621 15.6548 69.5893 14.5224L71.9556 1.18525L68.3934 0.556136L68.0881 2.31765C68.0466 2.55078 67.9591 2.77352 67.8304 2.97313C67.7018 3.17273 67.5346 3.34527 67.3384 3.48085C67.1422 3.61643 66.9209 3.7124 66.6872 3.76325C66.4534 3.8141 66.2118 3.81884 65.9762 3.77719L65.3656 3.67653L64.7295 7.19956L67.1212 7.62736L65.9508 13.8682C65.3656 17.1144 67.7573 19.8825 70.9633 20.4613C74.1692 21.04 77.3497 19.203 77.9349 15.9568L78.2148 14.4469ZM80.4539 3.72432L81.1663 6.01429L77.6296 7.04604L80.5811 9.21018L79.1308 11.1479L74.271 7.54933L74.6526 5.43551L80.4539 3.72432Z" fill="#E2462C"/>
<path fill-rule="evenodd" clip-rule="evenodd" d="M93.9109 15.6908C93.9109 13.1919 92.5216 11.5889 90.7442 11.5889C90.2991 11.5711 89.8571 11.6805 89.4575 11.9075C89.058 12.1345 88.7133 12.472 88.4542 12.8899V9.03223H86.7095V19.7196H88.4542V18.5796C88.7182 18.9896 89.0645 19.3195 89.4634 19.5408C89.8623 19.7622 90.3018 19.8685 90.7442 19.8505C92.5216 19.8505 93.9109 18.1896 93.9109 15.6908ZM88.4542 15.7184C88.4542 14.2035 89.3418 13.3656 90.2818 13.3656C91.2327 13.3656 92.1203 14.1759 92.1203 15.6908C92.1203 17.2057 91.2218 18.0738 90.2818 18.0738C89.3418 18.0738 88.4542 17.2333 88.4542 15.7184ZM94.7268 15.7186C94.7268 18.2325 96.2011 19.8506 98.2163 19.8506C99.9305 19.8506 101.082 18.6804 101.459 17.2058H99.5684C99.4495 17.5109 99.2528 17.767 99.0047 17.94C98.7565 18.1131 98.4686 18.1949 98.1792 18.1746C97.3025 18.1746 96.6024 17.5103 96.5152 16.325H101.584C101.619 16.067 101.636 15.8061 101.634 15.5449C101.634 13.1644 100.218 11.5891 98.2163 11.5891C96.1531 11.5891 94.7268 13.2046 94.7268 15.7186ZM99.8193 14.9687H96.5282C96.6656 13.8715 97.3286 13.2499 98.1661 13.2499C99.0668 13.2499 99.7931 13.9143 99.8193 14.9687ZM103.186 13.3807H102.36V11.7148H103.186V9.73941H104.951V11.7148H106.501V13.3757H104.951V17.251C104.951 17.7845 105.138 18.0059 105.688 18.0059H106.501V19.7096H105.411C104.085 19.7096 103.197 19.0603 103.197 17.2258L103.186 13.3807ZM111.761 11.8941C111.362 11.6751 110.923 11.5704 110.482 11.589C108.717 11.589 107.315 13.1869 107.315 15.6858C107.315 18.1846 108.726 19.8455 110.471 19.8455C110.917 19.8623 111.361 19.7525 111.763 19.5257C112.164 19.2989 112.511 18.962 112.774 18.5445V19.7146H114.538V11.7148H112.774V12.8472C112.508 12.4401 112.16 12.1132 111.761 11.8941ZM109.105 15.6908C109.105 14.1734 109.995 13.3656 110.933 13.3656C111.897 13.3656 112.774 14.2011 112.774 15.7185C112.774 17.2359 111.871 18.0739 110.933 18.0739C109.995 18.0739 109.105 17.2082 109.105 15.6908Z" fill="#949BA8"/>
</svg>
